<?xml version="1.0" encoding="UTF-8" standalone="no"?>
<!-- Created with Inkscape (http://www.inkscape.org/) -->

<svg
   width="2335"
   height="512"
   viewBox="0 0 617.80094 135.46666"
   version="1.1"
   id="svg5"
   xml:space="preserve"
   sodipodi:docname="logo-dark.svg"
   inkscape:version="1.2.2 (b0a8486541, 2022-12-01)"
   inkscape:export-filename="logo-dark.png"
   inkscape:export-xdpi="109.47681"
   inkscape:export-ydpi="109.47681"
   xmlns:inkscape="http://www.inkscape.org/namespaces/inkscape"
   xmlns:sodipodi="http://sodipodi.sourceforge.net/DTD/sodipodi-0.dtd"
   xmlns="http://www.w3.org/2000/svg"
   xmlns:svg="http://www.w3.org/2000/svg"><sodipodi:namedview
     id="namedview7"
     pagecolor="#ffffff"
     bordercolor="#999999"
     borderopacity="1"
     inkscape:showpageshadow="0"
     inkscape:pageopacity="0"
     inkscape:pagecheckerboard="0"
     inkscape:deskcolor="#d1d1d1"
     inkscape:document-units="mm"
     showgrid="true"
     inkscape:zoom="0.3535534"
     inkscape:cx="878.2266"
     inkscape:cy="-418.60721"
     inkscape:window-width="2560"
     inkscape:window-height="1371"
     inkscape:window-x="0"
     inkscape:window-y="0"
     inkscape:window-maximized="1"
     inkscape:current-layer="layer1"
     inkscape:lockguides="true"><inkscape:grid
       type="xygrid"
       id="grid365"
       spacingx="3.96875"
       spacingy="3.96875"
       originx="-35.715165"
       originy="-79.374253" /></sodipodi:namedview><defs
     id="defs2"><filter
       style="color-interpolation-filters:sRGB;"
       inkscape:label="Invert"
       id="filter11148"
       x="0"
       y="0"
       width="1"
       height="1"><feColorMatrix
         type="hueRotate"
         values="180"
         result="color1"
         id="feColorMatrix11144" /><feColorMatrix
         values="-1 0 0 0 1 0 -1 0 0 1 0 0 -1 0 1 -0.21 -0.72 -0.07 2 0 "
         result="color2"
         id="feColorMatrix11146" /></filter><filter
       style="color-interpolation-filters:sRGB;"
       inkscape:label="Invert"
       id="filter11154"
       x="0"
       y="0"
       width="1"
       height="1"><feColorMatrix
         type="hueRotate"
         values="180"
         result="color1"
         id="feColorMatrix11150" /><feColorMatrix
         values="-1 0 0 0 1 0 -1 0 0 1 0 0 -1 0 1 -0.21 -0.72 -0.07 2 0 "
         result="color2"
         id="feColorMatrix11152" /></filter><filter
       style="color-interpolation-filters:sRGB;"
       inkscape:label="Invert"
       id="filter11160"
       x="0"
       y="0"
       width="1"
       height="1"><feColorMatrix
         type="hueRotate"
         values="180"
         result="color1"
         id="feColorMatrix11156" /><feColorMatrix
         values="-1 0 0 0 1 0 -1 0 0 1 0 0 -1 0 1 -0.21 -0.72 -0.07 2 0 "
         result="color2"
         id="feColorMatrix11158" /></filter></defs><g
     inkscape:label="Layer 1"
     inkscape:groupmode="layer"
     id="layer1"
     transform="translate(-35.718758,-79.375)"><text
       xml:space="preserve"
       style="font-size:78.5714px;font-family:Overpass;-inkscape-font-specification:Overpass;fill:#ffffff;stroke-width:0.026536;-inkscape-stroke:none;stop-color:#000000;filter:url(#filter11160)"
       x="183.35872"
       y="167.5369"
       id="text452"><tspan
         sodipodi:role="line"
         id="tspan450"
         style="fill:#1a1a1a;stroke-width:0.026536"
         x="183.35872"
         y="167.5369">connmapper</tspan></text><circle
       style="fill:#ffffff;fill-opacity:1;stroke:none;stroke-width:0.0335571;-inkscape-stroke:none;stop-color:#000000;filter:url(#filter11154)"
       id="path10324"
       cx="103.45155"
       cy="147.10834"
       r="67.733345" /><g
       id="g9531"
       transform="matrix(0.89377328,0,0,0.89377328,11.338213,17.200464)"
       style="filter:url(#filter11148)"><path
         d="m 105.51918,105.42538 -6.783262,5.07742 c -1.083716,0.80275 -1.70585,2.08716 -1.70585,3.43177 v 1.82627 c 0,1.36467 1.103785,2.46846 2.468466,2.46846 0.481652,0 0.963306,-0.14048 1.364686,-0.42144 l 8.38876,-5.59921 c 0.40138,-0.26089 0.88303,-0.42144 1.36468,-0.42144 h 0.20069 c 1.24427,0 2.26778,1.02351 2.26778,2.26778 0,0.60206 -0.24083,1.18406 -0.66227,1.6055 l -3.9937,3.9937 c -1.164,1.16399 -2.58888,2.04702 -4.15425,2.56881 l -5.318234,1.76605 c -1.163993,0.38131 -1.926608,1.46503 -1.926608,2.68923 0,0.74255 -0.301032,1.46502 -0.822822,2.00688 l -3.592321,3.59232 c -1.284404,1.28441 -1.986813,3.01032 -1.986813,4.81651 v 0.86297 c 0,3.29129 2.72936,5.96044 6.00058,5.96044 2.207571,0 4.254588,-1.24427 5.237958,-3.21102 l 0.80276,-1.62557 c 0.48165,-0.9633 1.48509,-1.58544 2.5688,-1.58544 0.9031,0 1.746,0.42145 2.28785,1.14393 l 3.27122,4.35493 c 0.42145,0.582 1.10379,0.9031 1.82626,0.9031 1.68579,0 2.78957,-1.78612 2.02695,-3.29129 l -0.22075,-0.46158 c -0.70241,-1.40482 0,-3.11067 1.50516,-3.61239 l 4.25459,-1.42489 c 1.52523,-0.50172 2.54874,-1.9266 2.54874,-3.53211 0,-2.06709 1.66571,-3.7328 3.7328,-3.7328 h 5.88017 c 1.76605,0 3.21101,1.44495 3.21101,3.21101 0,1.76606 -1.44496,3.21101 -3.21101,3.21101 h -4.15424 c -1.44496,0 -2.84978,0.582 -3.87329,1.60551 l -0.94323,0.94324 c -0.42145,0.42144 -0.66228,1.00343 -0.66228,1.6055 0,1.24427 1.02352,2.26778 2.26778,2.26778 h 2.26777 c 1.20413,0 2.36813,0.48165 3.21102,1.32454 l 1.30447,1.30448 c 0.36124,0.36123 0.56193,0.86296 0.56193,1.36467 0,0.50172 -0.20069,1.00344 -0.56193,1.36468 l -1.50516,1.50517 c -0.72248,0.76261 -1.12385,1.74598 -1.12385,2.7695 0,1.0235 0.40137,2.00688 1.14392,2.74943 l 3.6726,3.67259 c 2.04702,2.04702 4.83659,3.21101 7.74656,3.21101 h 1.48509 c 1.30448,-4.0539 2.00688,-8.3687 2.00688,-12.84405 0,-22.35667 -17.58029,-40.61931 -39.67606,-41.68296 z m 34.51838,61.79192 c -0.74255,-0.52178 -1.64564,-0.82282 -2.60895,-0.82282 -1.20413,0 -2.36812,-0.48165 -3.21101,-1.32454 l -2.66915,-2.70929 c -1.5453,-1.5453 -3.61239,-2.40826 -5.79989,-2.40826 -1.94668,0 -3.85322,-0.70241 -5.33831,-1.96674 l -5.31824,-4.5757 c -2.32798,-1.98681 -5.29817,-3.09059 -8.34863,-3.09059 h -4.21445 c -2.52868,0 -5.01721,0.74254 -7.124437,2.14736 l -5.498859,3.67259 c -3.572251,2.38819 -5.719616,6.40196 -5.719616,10.69668 v 0.64221 c 0,3.4117 1.344612,6.68292 3.752871,9.09118 l 3.211012,3.21101 c 1.70585,1.70585 4.013766,2.66916 6.422026,2.66916 h 4.274653 c 2.66916,0 4.81652,2.14736 4.81652,4.81651 0,0.50173 0.0803,1.00344 0.22076,1.46503 14.30907,-1.164 26.5912,-9.55276 33.1537,-21.51379 z m 14.79072,-20.10896 c 0,28.37732 -22.99887,51.3762 -51.37619,51.3762 -28.377319,0 -51.376193,-22.99888 -51.376193,-51.3762 0,-28.37732 22.998874,-51.376199 51.376193,-51.376199 28.37732,0 51.37619,22.998879 51.37619,51.376199 z M 89.664808,115.94145 c -1.244267,-1.24426 -3.291287,-1.24426 -4.535554,0 l -6.422025,6.42203 c -1.244267,1.24426 -1.244267,3.29128 0,4.53555 1.244267,1.24427 3.291288,1.24427 4.535555,0 l 6.422024,-6.42202 c 1.244267,-1.24427 1.244267,-3.29129 0,-4.53556 z"
         id="path335"
         style="stroke-width:0.200688" /><path
         id="path4891"
         style="fill:#4d4d4d;fill-opacity:1;stroke:none;stroke-width:0.0171567;-inkscape-stroke:none;stop-color:#000000"
         d="m 132.78984,99.777372 c -7.31687,-0.01451 -14.42073,1.110478 -17.68213,1.709978 1.97054,-0.36173 5.34302,-0.91477 9.31571,-1.29347 0.45294,0.20275 0.90288,0.41148 1.34876,0.62684 9.67251,-0.17008 21.91907,1.20073 25.04498,8.7514 5.36267,12.95361 -28.52746,37.53621 -28.52746,37.53621 0,0 37.6375,-24.77577 31.77067,-38.83949 -2.7959,-6.70224 -12.19585,-8.473472 -21.27053,-8.491468 z m -17.68213,1.709978 c -0.38566,0.0709 -0.71951,0.13467 -0.99167,0.1881 0.27313,-0.0536 0.60383,-0.11691 0.99167,-0.1881 z m -1.0356,0.19688 c -0.52893,0.10425 -0.82423,0.16847 -0.82423,0.16847 0,0 0.30704,-0.0665 0.82423,-0.16847 z" /><path
         id="path5237"
         style="fill:#4d4d4d;fill-opacity:1;stroke-width:0.0171567;-inkscape-stroke:none;stop-color:#000000"
         d="m 74.552047,83.788167 c -0.28052,0.0011 -0.557886,0.01807 -0.831991,0.05168 -13.309705,1.632042 -11.75686,21.490003 -10.23245,30.983633 0.407346,-0.50363 0.822763,-1.00062 1.248502,-1.48828 -1.346531,-9.50418 -1.449265,-23.388616 9.080583,-24.73492 16.151194,-2.065028 48.473009,58.50805 48.473009,58.50805 0,0 -30.064917,-63.391022 -47.737653,-63.32016 z m -9.759611,29.938223 c 0.04515,0.30711 0.0918,0.60925 0.139009,0.90589 -0.04724,-0.29677 -0.09383,-0.59861 -0.139009,-0.90589 z m -1.297596,1.14257 c 0.08855,0.54955 0.176724,1.06377 0.262,1.53737 -0.08516,-0.47358 -0.173588,-0.98867 -0.262,-1.53737 z m 0.262,1.53737 c 0.02707,0.15033 0.0522,0.28698 0.07855,0.42892 -0.02582,-0.1394 -0.05204,-0.28152 -0.07855,-0.42892 z m 1.244885,-1.33842 c 0.04398,0.26678 0.08893,0.52844 0.133842,0.78497 -0.04498,-0.25675 -0.08979,-0.51792 -0.133842,-0.78497 z m 0.216008,1.24592 c 0.04468,0.24687 0.08957,0.48805 0.134358,0.72347 -0.04486,-0.23559 -0.08961,-0.47639 -0.134358,-0.72347 z m 0.234094,1.23817 c 0.03858,0.196 0.07616,0.38729 0.114205,0.57361 -0.03798,-0.18577 -0.07569,-0.37819 -0.114205,-0.57361 z m -1.346171,0.67386 c 0.01646,0.0803 0.03144,0.1552 0.04703,0.22996 -0.01511,-0.0728 -0.03111,-0.152 -0.04703,-0.22996 z m 1.555977,0.3607 c 0.03422,0.16278 0.06851,0.32269 0.101803,0.47646 -0.03348,-0.15439 -0.06739,-0.31295 -0.101803,-0.47646 z m -1.324984,0.72295 c 0.03722,0.16576 0.05234,0.23367 0.07131,0.3142 -0.01854,-0.08 -0.04222,-0.18388 -0.07131,-0.3142 z m 1.499134,0.0842 c 0.118726,0.53731 0.228743,1.00795 0.325044,1.40663 -0.09617,-0.39742 -0.206367,-0.87046 -0.325044,-1.40663 z m 0.372587,1.60145 c 0.08685,0.35468 0.161434,0.64882 0.215491,0.85524 -0.05325,-0.20285 -0.1296,-0.50543 -0.215491,-0.85524 z m 0.22996,0.9095 c 0.05593,0.21222 0.0894,0.33228 0.0894,0.33228 0,0 -0.03554,-0.12846 -0.0894,-0.33228 z" /><path
         id="path5419"
         style="fill:#4d4d4d;fill-opacity:1;stroke:none;stroke-width:0.0171567;-inkscape-stroke:none;stop-color:#000000"
         d="m 57.743253,126.18351 c -3.358779,-0.008 -6.088319,0.54153 -7.893058,1.83142 -7.555813,6.93595 -3.401751,15.00896 2.289266,21.65242 -0.02401,-0.48962 -0.03992,-0.98171 -0.05013,-1.47485 -3.764105,-3.91242 -7.981285,-10.60659 -0.312126,-16.20572 11.632413,-8.49265 70.512495,15.12155 70.512495,15.12155 0,0 -44.020574,-20.87524 -64.546451,-20.92482 z m -5.653918,22.00899 c 0.161047,0.1674 0.321653,0.33093 0.480074,0.48783 -0.158421,-0.1569 -0.319027,-0.32043 -0.480074,-0.48783 z m 0.480074,0.48783 c 0.175506,0.17382 0.34905,0.3411 0.518831,0.50126 -0.169782,-0.16016 -0.343325,-0.32744 -0.518831,-0.50126 z m 0.518831,0.50126 c 0.169783,0.16016 0.335697,0.31322 0.497128,0.45889 -0.161431,-0.14567 -0.327345,-0.29873 -0.497128,-0.45889 z m 0.497128,0.45889 c 0.161431,0.14567 0.318254,0.28409 0.468705,0.41444 -0.150451,-0.13035 -0.307274,-0.26877 -0.468705,-0.41444 z m 0.468705,0.41444 c 0.150451,0.13035 0.294656,0.2527 0.431498,0.36691 -0.136842,-0.11421 -0.281047,-0.23656 -0.431498,-0.36691 z m 0.431498,0.36691 c 0.273685,0.22841 0.517405,0.42402 0.720886,0.58291 -0.203482,-0.15889 -0.447201,-0.3545 -0.720886,-0.58291 z m 0.720886,0.58291 c 0.203483,0.15888 0.366787,0.281 0.479041,0.3638 -0.112254,-0.0828 -0.275558,-0.20492 -0.479041,-0.3638 z m 0.479041,0.3638 c 0.112253,0.0828 0.173633,0.12609 0.173633,0.12609 0,0 -0.06138,-0.0433 -0.173633,-0.12609 z" /><path
         style="fill:#4d4d4d;fill-opacity:1;stroke:none;stroke-width:0.0171567;-inkscape-stroke:none;stop-color:#000000"
         d="m 122.2897,147.10834 c 0,0 -14.04278,7.11646 -20.86196,16.11103 -6.819176,8.99458 -8.982385,25.91675 -8.982385,25.91675 0,0 0.614479,-19.08518 7.093279,-27.89725 6.478796,-8.81207 22.751066,-14.13053 22.751066,-14.13053 z"
         id="path5540"
         sodipodi:nodetypes="czczc" /></g></g></svg>
